# Blender v3.1.2 OBJ File: ''
# www.blender.org
mtllib menu_fita.mtl
o Plane
v -3.864172 -0.345157 0.172888
v -3.608347 -0.343827 -0.027457
v -3.862379 -0.317389 0.171080
v -3.609672 -0.315985 -0.026680
v -3.608347 -0.343827 -0.027457
v -3.284191 -0.279324 -0.171803
v -3.609672 -0.315985 -0.026680
v -3.291072 -0.252512 -0.168431
v -3.284191 -0.279324 -0.171803
v -2.984814 -0.173292 -0.215620
v -3.291072 -0.252512 -0.168431
v -2.994596 -0.147468 -0.211749
v -2.984814 -0.173292 -0.215620
v -2.711960 -0.060179 -0.213705
v -2.994596 -0.147468 -0.211749
v -2.722935 -0.034840 -0.209823
v -2.711960 -0.060179 -0.213705
v -2.454662 0.050674 -0.188953
v -2.722935 -0.034840 -0.209823
v -2.465860 0.075917 -0.185087
v -2.454662 0.050674 -0.188953
v -2.205134 0.154992 -0.152793
v -2.465860 0.075917 -0.185087
v -2.215927 0.180402 -0.148869
v -2.205134 0.154992 -0.152793
v -1.958712 0.249505 -0.111973
v -2.215927 0.180402 -0.148869
v -1.968572 0.275268 -0.107897
v -1.958712 0.249505 -0.111973
v -1.712692 0.330721 -0.071438
v -1.968572 0.275268 -0.107897
v -1.721063 0.356967 -0.067123
v -1.712692 0.330721 -0.071438
v -1.465830 0.394351 -0.035687
v -1.721063 0.356967 -0.067123
v -1.472036 0.421141 -0.031068
v -1.465830 0.394351 -0.035687
v -1.218466 0.434982 -0.009496
v -1.472036 0.421141 -0.031068
v -1.221650 0.462244 -0.004573
v -1.218466 0.434982 -0.009496
v -0.970145 0.446091 0.001836
v -1.221650 0.462244 -0.004573
v -0.970172 0.473512 0.006904
v -0.970145 0.446091 0.001836
v -0.719878 0.434700 -0.000992
v -0.970172 0.473512 0.006904
v -0.717980 0.462057 0.004063
v -0.719878 0.434700 -0.000992
v -0.468490 0.415004 -0.013982
v -0.717980 0.462057 0.004063
v -0.465787 0.442300 -0.008966
v -0.468490 0.415004 -0.013982
v -0.217726 0.391015 -0.035594
v -0.465787 0.442300 -0.008966
v -0.214565 0.418269 -0.030615
v -0.217726 0.391015 -0.035594
v 0.034281 0.366338 -0.064382
v -0.214565 0.418269 -0.030615
v 0.037322 0.393603 -0.059388
v 0.034281 0.366338 -0.064382
v 0.291109 0.348012 -0.097949
v 0.037322 0.393603 -0.059388
v 0.293124 0.375348 -0.092822
v 0.291109 0.348012 -0.097949
v 0.553493 0.341509 -0.130751
v 0.293124 0.375348 -0.092822
v 0.553812 0.368877 -0.125417
v 0.553493 0.341509 -0.130751
v 0.820723 0.354119 -0.157020
v 0.553812 0.368877 -0.125417
v 0.818989 0.381394 -0.151484
v 0.820723 0.354119 -0.157020
v 1.088952 0.385108 -0.174067
v 0.818989 0.381394 -0.151484
v 1.085247 0.412160 -0.168405
v 1.088952 0.385108 -0.174067
v 1.357009 0.432252 -0.181386
v 1.085247 0.412160 -0.168405
v 1.352535 0.459181 -0.175695
v 1.357009 0.432252 -0.181386
v 1.630417 0.474402 -0.179441
v 1.352535 0.459181 -0.175695
v 1.627921 0.501580 -0.173727
v 1.630417 0.474402 -0.179441
v 1.909526 0.479914 -0.168476
v 1.627921 0.501580 -0.173727
v 1.910918 0.507138 -0.162603
v 1.909526 0.479914 -0.168476
v 2.183261 0.441605 -0.149073
v 1.910918 0.507138 -0.162603
v 2.188082 0.468382 -0.142964
v 2.183261 0.441605 -0.149073
v 2.445837 0.373516 -0.124262
v 2.188082 0.468382 -0.142964
v 2.452913 0.399738 -0.117946
v 2.445837 0.373516 -0.124262
v 2.698374 0.290359 -0.096905
v 2.452913 0.399738 -0.117946
v 2.706506 0.316246 -0.090476
v 2.698374 0.290359 -0.096905
v 2.944309 0.204168 -0.069233
v 2.706506 0.316246 -0.090476
v 2.952327 0.230093 -0.062817
v 2.944309 0.204168 -0.069233
v 3.187536 0.126038 -0.043272
v 2.952327 0.230093 -0.062817
v 3.194266 0.152360 -0.036990
v 3.187536 0.126038 -0.043272
v 3.431172 0.069781 -0.021619
v 3.194266 0.152360 -0.036990
v 3.435297 0.096687 -0.015565
v 3.431172 0.069781 -0.021619
v 3.675824 0.045349 -0.006217
v 3.435297 0.096687 -0.015565
v 3.676269 0.072615 -0.000394
v 3.675824 0.045349 -0.006217
v 3.919381 0.058457 0.001712
v 3.676269 0.072615 -0.000394
v 3.915649 0.085499 0.007400
v 3.919381 0.058457 0.001712
v 4.170452 0.093443 0.005639
v 3.915649 0.085499 0.007400
v 4.164626 0.120116 0.011309
vt 0.000000 0.000000
vt 1.000000 0.000000
vt 1.000000 1.000000
vt 0.000000 1.000000
vt 0.000000 0.000000
vt 1.000000 0.000000
vt 1.000000 1.000000
vt 0.000000 1.000000
vt 0.000000 0.000000
vt 1.000000 0.000000
vt 1.000000 1.000000
vt 0.000000 1.000000
vt 0.000000 0.000000
vt 1.000000 0.000000
vt 1.000000 1.000000
vt 0.000000 1.000000
vt 0.000000 0.000000
vt 1.000000 0.000000
vt 1.000000 1.000000
vt 0.000000 1.000000
vt 0.000000 0.000000
vt 1.000000 0.000000
vt 1.000000 1.000000
vt 0.000000 1.000000
vt 0.000000 0.000000
vt 1.000000 0.000000
vt 1.000000 1.000000
vt 0.000000 1.000000
vt 0.000000 0.000000
vt 1.000000 0.000000
vt 1.000000 1.000000
vt 0.000000 1.000000
vt 0.000000 0.000000
vt 1.000000 0.000000
vt 1.000000 1.000000
vt 0.000000 1.000000
vt 0.000000 0.000000
vt 1.000000 0.000000
vt 1.000000 1.000000
vt 0.000000 1.000000
vt 0.000000 0.000000
vt 1.000000 0.000000
vt 1.000000 1.000000
vt 0.000000 1.000000
vt 0.000000 0.000000
vt 1.000000 0.000000
vt 1.000000 1.000000
vt 0.000000 1.000000
vt 0.000000 0.000000
vt 1.000000 0.000000
vt 1.000000 1.000000
vt 0.000000 1.000000
vt 0.000000 0.000000
vt 1.000000 0.000000
vt 1.000000 1.000000
vt 0.000000 1.000000
vt 0.000000 0.000000
vt 1.000000 0.000000
vt 1.000000 1.000000
vt 0.000000 1.000000
vt 0.000000 0.000000
vt 1.000000 0.000000
vt 1.000000 1.000000
vt 0.000000 1.000000
vt 0.000000 0.000000
vt 1.000000 0.000000
vt 1.000000 1.000000
vt 0.000000 1.000000
vt 0.000000 0.000000
vt 1.000000 0.000000
vt 1.000000 1.000000
vt 0.000000 1.000000
vt 0.000000 0.000000
vt 1.000000 0.000000
vt 1.000000 1.000000
vt 0.000000 1.000000
vt 0.000000 0.000000
vt 1.000000 0.000000
vt 1.000000 1.000000
vt 0.000000 1.000000
vt 0.000000 0.000000
vt 1.000000 0.000000
vt 1.000000 1.000000
vt 0.000000 1.000000
vt 0.000000 0.000000
vt 1.000000 0.000000
vt 1.000000 1.000000
vt 0.000000 1.000000
vt 0.000000 0.000000
vt 1.000000 0.000000
vt 1.000000 1.000000
vt 0.000000 1.000000
vt 0.000000 0.000000
vt 1.000000 0.000000
vt 1.000000 1.000000
vt 0.000000 1.000000
vt 0.000000 0.000000
vt 1.000000 0.000000
vt 1.000000 1.000000
vt 0.000000 1.000000
vt 0.000000 0.000000
vt 1.000000 0.000000
vt 1.000000 1.000000
vt 0.000000 1.000000
vt 0.000000 0.000000
vt 1.000000 0.000000
vt 1.000000 1.000000
vt 0.000000 1.000000
vt 0.000000 0.000000
vt 1.000000 0.000000
vt 1.000000 1.000000
vt 0.000000 1.000000
vt 0.000000 0.000000
vt 1.000000 0.000000
vt 1.000000 1.000000
vt 0.000000 1.000000
vt 0.000000 0.000000
vt 1.000000 0.000000
vt 1.000000 1.000000
vt 0.000000 1.000000
vt 0.000000 0.000000
vt 1.000000 0.000000
vt 1.000000 1.000000
vt 0.000000 1.000000
vn 0.6164 0.0094 0.7874
vn 0.4080 -0.0080 0.9130
vn 0.1721 -0.0806 0.9818
vn 0.0473 -0.1309 0.9903
vn -0.0251 -0.1621 0.9865
vn -0.0670 -0.1800 0.9814
vn -0.0895 -0.1890 0.9779
vn -0.0976 -0.1918 0.9766
vn -0.0925 -0.1901 0.9774
vn -0.0732 -0.1857 0.9799
vn -0.0367 -0.1817 0.9827
vn 0.0028 -0.1818 0.9833
vn 0.0363 -0.1841 0.9822
vn 0.0666 -0.1867 0.9801
vn 0.0931 -0.1894 0.9775
vn 0.1138 -0.1912 0.9749
vn 0.1171 -0.1913 0.9745
vn 0.1050 -0.1914 0.9759
vn 0.0844 -0.1930 0.9776
vn 0.0613 -0.1965 0.9786
vn 0.0243 -0.2032 0.9788
vn -0.0343 -0.2089 0.9773
vn -0.0977 -0.2049 0.9739
vn -0.1424 -0.1955 0.9703
vn -0.1668 -0.1881 0.9679
vn -0.1739 -0.1856 0.9671
vn -0.1641 -0.1890 0.9682
vn -0.1321 -0.1982 0.9712
vn -0.0820 -0.2068 0.9749
vn -0.0206 -0.2085 0.9778
vn 0.0131 -0.2046 0.9788
usemtl None
s off
f 1/1/1 2/2/1 4/3/1 3/4/1
f 5/5/2 6/6/2 8/7/2 7/8/2
f 9/9/3 10/10/3 12/11/3 11/12/3
f 13/13/4 14/14/4 16/15/4 15/16/4
f 17/17/5 18/18/5 20/19/5 19/20/5
f 21/21/6 22/22/6 24/23/6 23/24/6
f 25/25/7 26/26/7 28/27/7 27/28/7
f 29/29/8 30/30/8 32/31/8 31/32/8
f 33/33/9 34/34/9 36/35/9 35/36/9
f 37/37/10 38/38/10 40/39/10 39/40/10
f 41/41/11 42/42/11 44/43/11 43/44/11
f 45/45/12 46/46/12 48/47/12 47/48/12
f 49/49/13 50/50/13 52/51/13 51/52/13
f 53/53/14 54/54/14 56/55/14 55/56/14
f 57/57/15 58/58/15 60/59/15 59/60/15
f 61/61/16 62/62/16 64/63/16 63/64/16
f 65/65/17 66/66/17 68/67/17 67/68/17
f 69/69/18 70/70/18 72/71/18 71/72/18
f 73/73/19 74/74/19 76/75/19 75/76/19
f 77/77/20 78/78/20 80/79/20 79/80/20
f 81/81/21 82/82/21 84/83/21 83/84/21
f 85/85/22 86/86/22 88/87/22 87/88/22
f 89/89/23 90/90/23 92/91/23 91/92/23
f 93/93/24 94/94/24 96/95/24 95/96/24
f 97/97/25 98/98/25 100/99/25 99/100/25
f 101/101/26 102/102/26 104/103/26 103/104/26
f 105/105/27 106/106/27 108/107/27 107/108/27
f 109/109/28 110/110/28 112/111/28 111/112/28
f 113/113/29 114/114/29 116/115/29 115/116/29
f 117/117/30 118/118/30 120/119/30 119/120/30
f 121/121/31 122/122/31 124/123/31 123/124/31
