# Blender v3.1.2 OBJ File: ''
# www.blender.org
mtllib Arma_Broca.mtl
o Esfera_UV
v 0.477368 0.991194 0.712517
v 0.477368 0.987017 -0.734938
v 0.477368 -0.390885 -1.178254
v 0.477368 -1.238299 -0.004783
v 0.477368 -0.384127 1.163778
v 2.855883 -0.007020 -0.008336
v 1.870855 -0.328697 0.226798
v 0.885827 -0.821209 0.228219
v 0.885827 -0.479540 0.695643
v 2.020851 -0.628060 0.445620
v 1.035824 -1.120571 0.447041
v 1.035824 -0.778903 0.914465
v 2.132843 -0.971827 0.741897
v 1.148321 -1.345093 0.611158
v 1.148321 -1.003424 1.078582
v 3.225988 -0.234502 0.157945
v 2.240961 -0.727014 0.159366
v 2.240961 -0.385345 0.626790
v 3.338486 -0.459024 0.322061
v 2.353458 -0.951536 0.323483
v 2.353458 -0.609867 0.790907
v 1.870855 -0.330049 -0.241609
v 0.885828 -0.483595 -0.709576
v 0.885828 -0.822560 -0.240188
v 2.020851 -0.630669 -0.458700
v 1.035824 -0.784215 -0.926667
v 1.035824 -1.123181 -0.457279
v 2.132843 -0.976140 -0.752987
v 1.148321 -1.009681 -1.089485
v 1.148321 -1.348646 -0.620097
v 3.225988 -0.235458 -0.173300
v 2.240961 -0.389004 -0.641267
v 2.240961 -0.727970 -0.171879
v 3.338486 -0.460923 -0.336118
v 2.353458 -0.614469 -0.804086
v 2.353458 -0.953435 -0.334697
v 0.844785 0.807422 0.314994
v 0.844785 0.805543 -0.336361
v 1.952941 0.358226 -0.009390
v 0.957282 1.085530 0.396931
v 0.957282 1.083650 -0.420398
v 2.065438 0.636333 -0.010192
v 1.032280 1.270935 0.313657
v 1.032280 1.269055 -0.337698
v 2.141448 1.060990 -0.011417
v 2.625934 0.410550 0.399375
v 3.734090 -0.038647 -0.008244
v 2.625934 0.408670 -0.417954
v 2.700932 0.595955 0.315605
v 3.809088 0.146758 -0.008779
v 2.700932 0.594075 -0.335750
v 0.358713 0.725622 0.520736
v 0.358713 0.722556 -0.541627
v 0.358713 -0.288759 -0.867000
v 0.358713 -0.910720 -0.005728
v 0.358713 -0.283799 0.851940
v 1.666625 0.492087 0.352091
v 1.666625 0.489999 -0.371637
v 0.477368 0.298066 -0.956596
v 1.666625 -0.198953 -0.593295
v 1.666625 -0.195574 0.577721
v 0.477368 0.303534 0.938148
v -0.167321 0.355084 1.375630
v 1.554552 0.628083 0.527104
v 1.554552 -0.367551 0.853785
v -0.167321 0.347091 -1.394369
v 1.554552 -0.372521 -0.868361
v 1.554552 0.624982 -0.547432
v 0.191961 0.363866 1.455327
v 2.012947 0.652578 0.557959
v 2.012946 -0.400365 0.903444
v 0.191961 0.355412 -1.474115
v 2.012947 -0.405621 -0.917830
v 2.012947 0.649299 -0.578428
v 0.477368 0.989106 -0.011210
v 0.844785 0.806483 -0.010683
v 0.685085 1.202135 -0.011825
v 0.766373 1.403088 -0.012405
v 0.358713 0.724089 -0.010445
v 0.477368 -0.811213 0.579498
v 0.885827 -0.650374 0.461931
v 0.770213 -1.002796 0.738467
v 0.892145 -1.246147 0.916347
v 0.358713 -0.597260 0.423106
v 0.477368 -0.814592 -0.591518
v 0.885828 -0.653078 -0.474882
v 0.770214 -1.007089 -0.749379
v 0.892145 -1.251463 -0.925852
v 0.358713 -0.599740 -0.436364
v 2.666625 0.145523 -0.482466
v 2.554553 0.126231 -0.707896
v 3.012947 0.121839 -0.748129
v 2.666625 0.155914 0.462394
v 2.554552 0.141353 0.686807
v 3.012947 0.137832 0.726854
v 1.140711 1.054448 -0.011398
v 1.316310 0.978012 -0.274976
v 1.193151 1.184086 -0.011773
v 1.364692 1.097619 -0.221624
v 1.364692 1.098832 0.198575
v 1.316310 0.979224 0.252296
v 2.392783 0.543784 0.253873
v 3.107672 0.254000 -0.009088
v 2.392783 0.542571 -0.273399
v 2.441166 0.663392 0.199832
v 3.156055 0.373608 -0.009433
v 2.441166 0.662179 -0.220368
v 0.358713 0.623461 -0.010155
v 0.358713 0.622124 -0.473469
v 0.358713 -0.259978 -0.757270
v 0.358713 -0.531226 -0.381655
v 0.358713 -0.802473 -0.006040
v 0.358713 -0.529063 0.368003
v 0.358713 -0.255652 0.742046
v 0.358713 0.624798 0.453159
v 0.592487 0.510178 -0.009828
v 0.592487 0.509061 -0.396740
v 0.592487 -0.227578 -0.633741
v 0.592487 -0.454096 -0.320066
v 0.592487 -0.680614 -0.006392
v 0.592487 -0.452290 0.305970
v 0.592487 -0.223965 0.618332
v 0.592487 0.511294 0.377084
v 0.131010 0.467753 -0.009706
v 0.131010 0.466719 -0.368005
v 0.131010 -0.215445 -0.587479
v 0.131010 -0.425211 -0.297001
v 0.131010 -0.634978 -0.006524
v 0.131010 -0.423538 0.282739
v 0.131010 -0.212099 0.572001
v 0.131010 0.468787 0.348593
vt 0.478254 0.324164
vt 0.364127 0.287082
vt 0.434661 0.190000
vt 0.565339 0.190000
vt 0.521746 0.324164
vt 0.521746 0.324164
vt 0.565339 0.190000
vt 0.021746 0.324164
vt 0.135873 0.287082
vt 0.135873 0.407082
vt 0.250000 0.250000
vt 0.021746 0.324164
vt 0.021746 0.324164
vt 0.250000 0.250000
vt 0.608932 0.055836
vt 0.608932 0.055836
vt 0.565339 0.190000
vt 0.021746 0.324164
vt 0.250000 0.250000
vt 0.250000 0.250000
vt 0.021746 0.324164
vt 0.608932 0.055836
vt 0.565339 0.190000
vt 0.108932 0.055836
vt 0.108932 0.055836
vt 0.108932 0.055836
vt 0.065339 0.190000
vt 0.608932 0.055836
vt 0.565339 0.190000
vt 0.521746 0.324164
vt 0.521746 0.324164
vt 0.521746 0.324164
vt 0.521746 0.324164
vt 0.250000 0.250000
vt 0.021746 0.324164
vt 0.108932 0.055836
vt 0.108932 0.055836
vt 0.608932 0.055836
vt 0.608932 0.055836
vt 0.250000 0.250000
vt 0.108932 0.055836
vt 0.108932 0.055836
vt 0.250000 0.250000
vt 0.750000 0.055836
vt 0.891068 0.055836
vt 0.891068 0.055836
vt 0.750000 0.055836
vt 0.250000 0.250000
vt 0.391068 0.055836
vt 0.391068 0.055836
vt 0.250000 0.250000
vt 0.891068 0.055836
vt 0.750000 0.055836
vt 0.391068 0.055836
vt 0.391068 0.055836
vt 0.108932 0.055836
vt 0.250000 0.055836
vt 0.891068 0.055836
vt 0.750000 0.055836
vt 0.108932 0.055836
vt 0.250000 0.250000
vt 0.108932 0.055836
vt 0.391068 0.055836
vt 0.891068 0.055836
vt 0.891068 0.055836
vt 0.608932 0.055836
vt 0.608932 0.055836
vt 0.608932 0.055836
vt 0.608932 0.055836
vt 0.250000 0.250000
vt 0.478254 0.324164
vt 0.478254 0.324164
vt 0.250000 0.250000
vt 0.864127 0.407082
vt 0.750000 0.490000
vt 0.750000 0.490000
vt 0.864127 0.407082
vt 0.478254 0.324164
vt 0.250000 0.250000
vt 0.250000 0.250000
vt 0.478254 0.324164
vt 0.250000 0.490000
vt 0.250000 0.490000
vt 0.750000 0.490000
vt 0.864127 0.407082
vt 0.250000 0.490000
vt 0.364127 0.407082
vt 0.250000 0.250000
vt 0.250000 0.490000
vt 0.250000 0.490000
vt 0.250000 0.490000
vt 0.250000 0.490000
vt 0.250000 0.490000
vt 0.250000 0.490000
vt 0.750000 0.490000
vt 0.864127 0.407082
vt 0.478254 0.324164
vt 0.250000 0.250000
vt 0.478254 0.324164
vt 0.478254 0.324164
vt 0.864127 0.407082
vt 0.978254 0.324164
vt 0.978254 0.324164
vt 0.864127 0.407082
vt 0.608932 0.055836
vt 0.750000 0.055836
vt 0.391068 0.055836
vt 0.391068 0.055836
vt 0.478254 0.324164
vt 0.978254 0.324164
vt 0.250000 0.490000
vt 0.250000 0.490000
vt 0.021746 0.324164
vt 0.250000 0.370000
vt 0.320534 0.152918
vt 0.434661 0.190000
vt 0.320534 0.152918
vt 0.342331 0.220000
vt 0.342331 0.220000
vt 0.194208 0.329464
vt 0.250000 0.370000
vt 0.250000 0.370000
vt 0.194208 0.329464
vt 0.364127 0.287082
vt 0.364127 0.287082
vt 0.434661 0.190000
vt 0.135873 0.287082
vt 0.135873 0.407082
vt 0.194208 0.329464
vt 0.135873 0.407082
vt 0.135873 0.287082
vt 0.342331 0.220000
vt 0.320534 0.152918
vt 0.750000 0.490000
vt 0.250000 0.250000
vt 0.478254 0.324164
vt 0.978254 0.324164
vt 0.978254 0.324164
vt 0.521746 0.324164
vt 0.891068 0.055836
vt 0.608932 0.055836
vt 0.478254 0.324164
vt 0.364127 0.407082
vt 0.978254 0.324164
vt 0.478254 0.324164
vt 0.391068 0.055836
vt 0.391068 0.055836
vt 0.478254 0.324164
vt 0.521746 0.324164
vt 0.565339 0.190000
vt 0.750000 0.490000
vt 0.608932 0.055836
vt 0.250000 0.490000
vt 0.021746 0.324164
vt 0.750000 0.055836
vt 0.891068 0.055836
vt 0.565339 0.190000
vt 0.608932 0.055836
vt 0.250000 0.490000
vt 0.021746 0.324164
vt 0.750000 0.055836
vt 0.978254 0.324164
vt 0.864127 0.407082
vt 0.891068 0.055836
vt 0.750000 0.490000
vt 0.521746 0.324164
vt 0.250000 0.250000
vt 0.108932 0.055836
vt 0.750000 0.490000
vt 0.864127 0.407082
vt 0.750000 0.490000
vt 0.750000 0.490000
vt 0.978254 0.324164
vt 0.978254 0.324164
vt 0.978254 0.324164
vt 0.750000 0.055836
vt 0.891068 0.055836
vt 0.750000 0.490000
vt 0.864127 0.407082
vt 0.978254 0.324164
vt 0.608932 0.055836
vt 0.565339 0.190000
vt 0.521746 0.324164
vt 0.391068 0.055836
vt 0.478254 0.324164
vt 0.250000 0.490000
vt 0.021746 0.324164
vn 0.3863 0.2825 -0.8781
vn -0.9127 -0.3299 0.2411
vn 0.3863 0.2876 0.8764
vn 0.2437 0.6489 0.7208
vn 0.4384 -0.7256 0.5304
vn 0.3823 -0.3489 0.8557
vn -0.9098 -0.2805 -0.3060
vn 0.2437 -0.4898 -0.8371
vn 0.2530 -0.7811 0.5709
vn -0.6882 -0.6201 -0.3766
vn 0.0000 0.5901 0.8073
vn 0.3883 -0.9074 0.1607
vn -0.3750 0.7484 -0.5471
vn 0.0000 -0.5901 -0.8073
vn 0.2437 -0.4849 0.8399
vn 0.4384 -0.7287 -0.5262
vn 0.3823 -0.3538 -0.8536
vn -0.9026 0.2271 -0.3656
vn 0.2437 0.6448 -0.7245
vn 0.2530 -0.7843 -0.5664
vn -0.6545 0.2000 -0.7291
vn 0.3883 -0.9083 -0.1555
vn -0.3750 0.7516 0.5427
vn 0.0000 0.5854 -0.8107
vn -0.0000 -0.5854 0.8107
vn 0.2206 -0.2337 -0.9469
vn 0.4451 0.8955 -0.0026
vn 0.3763 0.7887 -0.4862
vn 0.2207 -0.2276 0.9484
vn -0.9377 -0.1054 0.3310
vn 0.2414 0.9704 -0.0028
vn -0.3750 -0.9270 0.0021
vn -0.3593 -0.8873 0.2892
vn 0.3636 0.8998 0.2413
vn 0.3076 0.9492 0.0659
vn 0.4183 0.8958 0.1500
vn 0.3638 0.8985 -0.2455
vn 0.3763 0.7915 0.4816
vn -1.0000 -0.0000 0.0000
vn -0.9127 -0.3313 -0.2392
vn -0.9127 0.1252 -0.3890
vn -0.9127 0.4086 -0.0012
vn -0.9127 0.1274 0.3883
vn -0.4575 -0.6560 0.6003
vn 0.3592 -0.9135 0.1911
vn 0.0798 -0.1633 -0.9833
vn -0.0648 0.9797 -0.1897
vn -0.4575 -0.6594 -0.5965
vn -0.4372 0.5568 0.7063
vn 0.3870 0.9200 -0.0625
vn -0.4372 0.5527 -0.7095
vn 0.2384 -0.1271 0.9628
vn 0.2361 0.6731 -0.7009
vn -0.0648 0.9808 0.1841
vn 0.0707 -0.4277 0.9012
vn -0.1237 -0.7612 -0.6366
vn -0.1237 -0.7575 0.6410
vn -0.3227 -0.9296 -0.1779
vn -0.9378 -0.1074 -0.3302
vn -0.6545 0.2042 0.7280
vn -0.9026 0.2293 0.3643
vn -0.6882 -0.6179 0.3802
vn -0.9098 -0.2788 0.3076
vn 0.0799 -0.1607 0.9838
vn 0.3933 0.9183 0.0451
vn 0.3680 -0.9131 -0.1755
vn 0.0710 -0.4307 -0.8997
vn 0.2361 -0.1382 -0.9619
vn 0.2337 0.6815 0.6935
vn -0.4565 -0.8897 -0.0066
vn 0.4184 0.8951 -0.1543
vn -0.4565 -0.8896 0.0117
vn 0.3076 0.9489 -0.0702
vn -0.3227 -0.9286 0.1833
vn -0.3593 -0.8889 -0.2841
vn -0.4183 -0.2782 0.8646
vn -0.3886 0.7439 -0.5437
vn -0.4183 -0.2832 -0.8630
vn -0.3886 0.7470 0.5394
vn -0.4361 -0.8999 0.0026
vn 0.3651 0.9289 0.0625
vn 0.3666 -0.7170 -0.5928
vn 0.3666 -0.7854 0.4988
vn 0.3666 -0.7136 0.5970
vn 0.3666 -0.7883 -0.4942
vn 0.3651 0.9285 -0.0678
vn 0.9348 0.1107 0.3375
vn 0.9348 0.1088 -0.3381
vn -0.6667 0.4054 0.6254
vn 0.3397 0.0692 -0.9380
vn 0.3402 0.0755 0.9373
vn 0.1435 0.3577 0.9228
vn 0.1440 0.3529 -0.9245
vn -0.6664 0.4029 -0.6273
vn -0.0798 -0.8081 -0.5836
vn -0.0915 0.9958 -0.0029
vn -0.0798 -0.8047 0.5882
vn -0.0870 0.3051 -0.9483
vn -0.0870 0.3106 0.9466
usemtl Materiais
s off
f 2/1/1 58/2/1 59/3/1
f 80/4/2 5/5/2 56/6/2 84/7/2
f 5/8/3 61/9/3 62/10/3
f 7/11/4 9/12/4 12/13/4 10/14/4
f 80/4/5 4/15/5 8/16/5 81/17/5
f 15/18/6 13/19/6 19/20/6 21/21/6
f 81/17/7 8/16/7 11/22/7 82/23/7
f 8/24/8 7/11/8 10/14/8 11/25/8
f 14/26/9 13/19/9 15/18/9 83/27/9
f 82/23/10 11/22/10 14/28/10 83/29/10
f 12/30/11 15/31/11 21/32/11 18/33/11
f 16/34/4 18/35/4 21/21/4 19/20/4
f 17/36/8 16/34/8 19/20/8 20/37/8
f 13/19/12 14/26/12 20/37/12 19/20/12
f 10/14/13 12/13/13 18/35/13 16/34/13
f 14/28/14 11/22/14 17/38/14 20/39/14
f 11/25/13 10/14/13 16/34/13 17/36/13
f 22/40/15 24/41/15 27/42/15 25/43/15
f 85/44/16 3/45/16 23/46/16 86/47/16
f 28/48/17 29/49/17 35/50/17 34/51/17
f 86/47/18 23/46/18 26/52/18 87/53/18
f 23/54/19 22/40/19 25/43/19 26/55/19
f 29/49/20 28/48/20 30/56/20 88/57/20
f 87/53/21 26/52/21 29/58/21 88/59/21
f 30/56/22 28/48/22 34/51/22 36/60/22
f 31/61/15 33/62/15 36/60/15 34/51/15
f 32/63/19 31/61/19 34/51/19 35/50/19
f 25/43/23 27/42/23 33/62/23 31/61/23
f 29/58/24 26/52/24 32/64/24 35/65/24
f 26/55/23 25/43/23 31/61/23 32/63/23
f 27/66/25 30/67/25 36/68/25 33/69/25
f 39/70/26 38/71/26 41/72/26 42/73/26
f 75/74/27 1/75/27 37/76/27 76/77/27
f 44/78/28 45/79/28 50/80/28 51/81/28
f 37/82/29 39/70/29 42/73/29 40/83/29
f 76/77/30 37/76/30 40/84/30 77/85/30
f 43/86/31 45/79/31 44/78/31 78/87/31
f 40/83/32 42/73/32 47/88/32 46/89/32
f 49/90/33 43/86/33 100/91/33 105/92/33
f 40/83/34 46/89/34 102/93/34 101/94/34
f 77/85/35 40/84/35 101/95/35 96/96/35
f 42/73/32 41/72/32 48/97/32 47/88/32
f 46/89/36 47/88/36 103/98/36 102/93/36
f 48/97/37 41/72/37 97/99/37 104/100/37
f 45/79/38 43/86/38 49/90/38 50/80/38
f 79/101/39 53/102/39 109/103/39 108/104/39
f 85/44/40 4/15/40 55/105/40 89/106/40
f 2/1/41 59/3/41 3/107/41 54/108/41 53/109/41
f 75/74/42 2/110/42 53/102/42 79/101/42
f 5/8/43 62/10/43 1/111/43 52/112/43 56/113/43
f 62/10/3 57/114/3 1/111/3
f 60/115/44 59/3/44 66/116/44 67/117/44
f 59/3/1 60/115/1 3/107/1
f 90/118/45 60/115/45 67/117/45 91/119/45
f 94/120/46 64/121/46 70/122/46 95/123/46
f 66/116/47 68/124/47 74/125/47 72/126/47
f 62/10/48 61/9/48 65/127/48 63/128/48
f 59/3/49 58/2/49 68/124/49 66/116/49
f 93/129/50 57/114/50 64/121/50 94/120/50
f 57/114/51 62/10/51 63/128/51 64/121/51
f 69/130/52 71/131/52 95/123/52
f 72/126/53 74/125/53 92/132/53
f 64/121/54 63/128/54 69/130/54 70/122/54
f 91/119/55 67/117/55 73/133/55 92/132/55
f 67/117/56 66/116/56 72/126/56 73/133/56
f 63/128/57 65/127/57 71/131/57 69/130/57
f 1/75/42 75/74/42 79/101/42 52/134/42
f 51/81/58 50/80/58 106/135/58 107/136/58
f 38/137/59 76/77/59 77/85/59 41/138/59
f 2/110/27 75/74/27 76/77/27 38/137/27
f 12/30/60 82/23/60 83/29/60 15/31/60
f 9/139/61 81/17/61 82/23/61 12/30/61
f 5/5/5 80/4/5 81/17/5 9/139/5
f 4/15/2 80/4/2 84/7/2 55/105/2
f 3/45/40 85/44/40 89/106/40 54/140/40
f 27/66/62 87/53/62 88/59/62 30/67/62
f 24/141/63 86/47/63 87/53/63 27/66/63
f 4/15/16 85/44/16 86/47/16 24/141/16
f 68/124/64 91/119/64 92/132/64 74/125/64
f 58/2/65 90/118/65 91/119/65 68/124/65
f 61/9/66 93/129/66 94/120/66 65/127/66
f 65/127/67 94/120/67 95/123/67 71/131/67
f 92/132/68 73/133/68 72/126/68
f 95/123/69 70/122/69 69/130/69
f 78/87/70 44/78/70 99/142/70 98/143/70
f 47/88/71 48/97/71 104/100/71 103/98/71
f 43/86/72 78/87/72 98/143/72 100/91/72
f 41/138/73 77/85/73 96/96/73 97/144/73
f 50/80/74 49/90/74 105/92/74 106/135/74
f 44/78/75 51/81/75 107/136/75 99/142/75
f 109/145/76 110/146/76 118/147/76 117/148/76
f 84/7/39 56/6/39 114/149/39 113/150/39
f 53/109/39 54/108/39 110/146/39 109/145/39
f 52/134/39 79/101/39 108/104/39 115/151/39
f 55/105/39 84/7/39 113/150/39 112/152/39
f 56/113/39 52/112/39 115/153/39 114/154/39
f 54/140/39 89/106/39 111/155/39 110/156/39
f 89/106/39 55/105/39 112/152/39 111/155/39
f 112/152/77 113/150/77 121/157/77 120/158/77
f 114/154/78 115/153/78 123/159/78 122/160/78
f 111/155/79 112/152/79 120/158/79 119/161/79
f 108/104/80 109/103/80 117/162/80 116/163/80
f 110/156/79 111/155/79 119/161/79 118/164/79
f 115/151/80 108/104/80 116/163/80 123/165/80
f 113/150/77 114/149/77 122/166/77 121/157/77
usemtl Materiais.001
f 6/167/81 58/2/81 2/1/81 38/71/81 39/70/81
f 6/167/82 4/168/82 24/41/82 22/40/82
f 6/167/83 61/9/83 5/8/83 9/12/83 7/11/83
f 4/168/84 6/167/84 7/11/84 8/24/84
f 3/107/85 60/115/85 6/167/85 22/40/85 23/54/85
f 1/111/86 57/114/86 6/167/86 39/70/86 37/82/86
f 61/9/87 6/167/87 57/114/87 93/129/87
f 58/2/88 6/167/88 60/115/88 90/118/88
usemtl Materiais.002
f 96/96/89 101/95/89 100/169/89 98/170/89
f 103/98/90 104/100/90 107/136/90 106/135/90
f 102/93/91 103/98/91 106/135/91 105/92/91
f 100/169/92 101/95/92 102/171/92 105/172/92
f 97/144/93 99/173/93 107/174/93 104/175/93
f 97/144/94 96/96/94 98/170/94 99/173/94
f 118/164/95 119/161/95 127/176/95 126/177/95
f 131/178/39 124/179/39 125/180/39 126/177/39 127/176/39 128/181/39 129/182/39 130/183/39
f 123/165/96 116/163/96 124/179/96 131/178/96
f 121/157/97 122/166/97 130/183/97 129/182/97
f 117/148/98 118/147/98 126/184/98 125/185/98
f 120/158/97 121/157/97 129/182/97 128/181/97
f 122/160/99 123/159/99 131/186/99 130/187/99
f 119/161/95 120/158/95 128/181/95 127/176/95
f 116/163/96 117/162/96 125/180/96 124/179/96
