# Blender v3.1.2 OBJ File: ''
# www.blender.org
mtllib Mesh.mtl
o Cubo.002_Cubo.003
v -0.884530 -0.884530 0.884530
v -1.115470 -1.115470 1.115470
v -0.884530 0.884530 0.884530
v -1.115470 1.115470 1.115470
v -0.884530 -0.884530 -0.884530
v -1.115470 -1.115470 -1.115470
v -0.884530 0.884530 -0.884530
v -1.115470 1.115470 -1.115470
v 0.884530 -0.884530 0.884530
v 1.115470 -1.115470 1.115470
v 0.884530 0.884530 0.884530
v 1.115470 1.115470 1.115470
v 0.884530 -0.884530 -0.884530
v 1.115470 -1.115470 -1.115470
v 0.884530 0.884530 -0.884530
v 1.115470 1.115470 -1.115470
v -1.000000 -0.800000 0.800000
v -1.000000 0.800000 0.800000
v -1.000000 0.800000 -0.800000
v -1.000000 -0.800000 -0.800000
v -0.800000 -0.800000 -1.000000
v -0.800000 0.800000 -1.000000
v 0.800000 0.800000 -1.000000
v 0.800000 -0.800000 -1.000000
v 1.000000 -0.800000 -0.800000
v 1.000000 0.800000 -0.800000
v 1.000000 0.800000 0.800000
v 1.000000 -0.800000 0.800000
v 0.800000 -0.800000 1.000000
v 0.800000 0.800000 1.000000
v -0.800000 0.800000 1.000000
v -0.800000 -0.800000 1.000000
v -0.800000 -1.000000 -0.800000
v 0.800000 -1.000000 -0.800000
v 0.800000 -1.000000 0.800000
v -0.800000 -1.000000 0.800000
v 0.800000 1.000000 -0.800000
v -0.800000 1.000000 -0.800000
v -0.800000 1.000000 0.800000
v 0.800000 1.000000 0.800000
v 0.400216 0.361253 0.673665
v 0.469584 0.316135 0.657943
v 0.533301 0.390443 0.725826
v 0.463932 0.435562 0.741548
v 0.648090 0.524313 0.848119
v 0.711806 0.598621 0.916002
v 0.642438 0.643740 0.931724
v 0.578721 0.569431 0.863842
v 0.303897 0.528902 0.580555
v 0.367613 0.603211 0.648438
v 0.383517 0.651151 0.581032
v 0.319800 0.576843 0.513149
v 0.546119 0.811389 0.838614
v 0.562023 0.859329 0.771208
v 0.498306 0.785021 0.703325
v 0.482402 0.737080 0.770731
v 0.639109 0.369160 0.440777
v 0.702825 0.443469 0.508660
v 0.686922 0.395528 0.576066
v 0.623205 0.321220 0.508183
v 0.881331 0.651647 0.698836
v 0.865428 0.603706 0.766242
v 0.801711 0.529398 0.698360
v 0.817614 0.577338 0.630954
v 0.473421 0.581928 0.363389
v 0.537138 0.656236 0.431272
v 0.606506 0.611118 0.415550
v 0.542790 0.536810 0.347667
v 0.715644 0.864414 0.621448
v 0.785012 0.819296 0.605726
v 0.721295 0.744988 0.537843
v 0.651927 0.790106 0.553565
v 0.723501 0.738277 1.018087
v 0.792869 0.693159 1.002365
v 0.797995 0.776843 1.010464
v 0.627182 0.905927 0.924977
v 0.701676 0.944492 0.917354
v 0.643085 0.953867 0.857571
v 0.796706 0.958952 0.707811
v 0.855297 0.949577 0.767594
v 0.866075 0.913834 0.692089
v 0.962394 0.746184 0.785199
v 0.951616 0.781927 0.860705
v 0.946490 0.698244 0.852605
v -0.873588 -0.844313 -0.673914
v -0.857684 -0.796372 -0.741320
v -0.862810 -0.880056 -0.749420
v -0.777269 -1.011962 -0.580804
v -0.766491 -1.047705 -0.656309
v -0.707900 -1.057080 -0.596526
v -0.704063 -0.791287 -0.891080
v -0.634695 -0.836405 -0.906802
v -0.709189 -0.874971 -0.899179
v -0.538376 -1.004055 -0.813692
v -0.554279 -1.051995 -0.746286
v -0.612870 -1.042620 -0.806069
v 0.641944 0.361253 -0.353162
v 0.626222 0.316135 -0.422530
v 0.694105 0.390443 -0.486247
v 0.709827 0.435562 -0.416879
v 0.816399 0.524313 -0.601036
v 0.884281 0.598621 -0.664753
v 0.900004 0.643740 -0.595384
v 0.832121 0.569431 -0.531668
v 0.548834 0.528902 -0.256843
v 0.616717 0.603211 -0.320560
v 0.549311 0.651151 -0.336463
v 0.481428 0.576843 -0.272747
v 0.806893 0.811389 -0.499065
v 0.739487 0.859329 -0.514969
v 0.671604 0.785021 -0.451252
v 0.739010 0.737080 -0.435348
v 0.409056 0.369160 -0.592055
v 0.476939 0.443469 -0.655772
v 0.544345 0.395528 -0.639868
v 0.476462 0.321220 -0.576151
v 0.667115 0.651647 -0.834277
v 0.734522 0.603706 -0.818374
v 0.666639 0.529398 -0.754657
v 0.599233 0.577338 -0.770561
v 0.331668 0.581928 -0.426368
v 0.399551 0.656236 -0.490084
v 0.383829 0.611118 -0.559453
v 0.315946 0.536810 -0.495736
v 0.589727 0.864414 -0.668590
v 0.574005 0.819296 -0.737958
v 0.506122 0.744988 -0.674241
v 0.521845 0.790106 -0.604873
v 0.986366 0.738277 -0.676447
v 0.970644 0.693159 -0.745816
v 0.978744 0.776843 -0.750942
v 0.893256 0.905927 -0.580128
v 0.885633 0.944492 -0.654623
v 0.825850 0.953867 -0.596032
v 0.676090 0.958952 -0.749653
v 0.735873 0.949577 -0.808244
v 0.660368 0.913834 -0.819021
v 0.753478 0.746184 -0.915340
v 0.828984 0.781927 -0.904563
v 0.820884 0.698244 -0.899437
v -0.705635 -0.844312 0.920641
v -0.773041 -0.796372 0.904738
v -0.781141 -0.880055 0.909864
v -0.612525 -1.011962 0.824322
v -0.688030 -1.047705 0.813545
v -0.628247 -1.057080 0.754954
v -0.922801 -0.791287 0.751117
v -0.938523 -0.836405 0.681748
v -0.930900 -0.874971 0.756243
v -0.845413 -1.004054 0.585429
v -0.778007 -1.051995 0.601333
v -0.837790 -1.042620 0.659924
vt 0.375000 0.000000
vt 0.625000 0.000000
vt 0.625000 0.000000
vt 0.375000 0.000000
vt 0.375000 0.000000
vt 0.625000 0.000000
vt 0.625000 0.250000
vt 0.625000 0.250000
vt 0.625000 0.250000
vt 0.375000 0.250000
vt 0.375000 0.250000
vt 0.375000 0.250000
vt 0.375000 0.250000
vt 0.625000 0.250000
vt 0.625000 0.500000
vt 0.625000 0.500000
vt 0.625000 0.500000
vt 0.375000 0.500000
vt 0.375000 0.500000
vt 0.375000 0.500000
vt 0.375000 0.500000
vt 0.625000 0.500000
vt 0.625000 0.750000
vt 0.625000 0.750000
vt 0.625000 0.750000
vt 0.375000 0.750000
vt 0.375000 0.750000
vt 0.375000 0.750000
vt 0.375000 0.750000
vt 0.625000 0.750000
vt 0.625000 1.000000
vt 0.625000 1.000000
vt 0.625000 1.000000
vt 0.375000 1.000000
vt 0.375000 1.000000
vt 0.375000 1.000000
vt 0.125000 0.500000
vt 0.375000 0.500000
vt 0.125000 0.500000
vt 0.125000 0.500000
vt 0.375000 0.750000
vt 0.125000 0.750000
vt 0.125000 0.750000
vt 0.125000 0.750000
vt 0.625000 0.500000
vt 0.875000 0.500000
vt 0.875000 0.500000
vt 0.875000 0.500000
vt 0.875000 0.750000
vt 0.875000 0.750000
vt 0.875000 0.750000
vt 0.625000 0.750000
vt 0.419618 0.794618
vt 0.580382 0.794618
vt 0.580382 0.955382
vt 0.419618 0.955382
vt 0.375000 0.294618
vt 0.375000 0.455382
vt 0.375000 0.455382
vt 0.375000 0.294618
vt 0.625000 0.705382
vt 0.625000 0.544618
vt 0.625000 0.544618
vt 0.625000 0.705382
vt 0.375000 0.794618
vt 0.375000 0.955382
vt 0.375000 0.955382
vt 0.375000 0.794618
vt 0.625000 0.455382
vt 0.625000 0.294618
vt 0.625000 0.294618
vt 0.625000 0.455382
vt 0.419618 0.294618
vt 0.580382 0.294618
vt 0.580382 0.455382
vt 0.419618 0.455382
vt 0.169618 0.544618
vt 0.330382 0.544618
vt 0.330382 0.705382
vt 0.169618 0.705382
vt 0.375000 0.544618
vt 0.375000 0.705382
vt 0.375000 0.705382
vt 0.375000 0.544618
vt 0.669618 0.544618
vt 0.830382 0.544618
vt 0.830382 0.705382
vt 0.669618 0.705382
vt 0.625000 0.955382
vt 0.625000 0.794618
vt 0.625000 0.794618
vt 0.625000 0.955382
vt 0.419618 0.044618
vt 0.580382 0.044618
vt 0.580382 0.205382
vt 0.419618 0.205382
vt 0.419618 0.544618
vt 0.580382 0.544618
vt 0.580382 0.705382
vt 0.419618 0.705382
vt 0.625000 0.205382
vt 0.625000 0.044618
vt 0.625000 0.044618
vt 0.625000 0.205382
vt 0.375000 1.000000
vt 0.375000 0.955382
vt 0.375000 1.000000
vt 0.625000 1.000000
vt 0.580382 1.000000
vt 0.375000 0.205382
vt 0.625000 1.000000
vt 0.625000 1.000000
vt 0.625000 0.955382
vt 0.625000 0.205382
vt 0.625000 0.250000
vt 0.669618 0.500000
vt 0.669618 0.500000
vt 0.625000 0.705382
vt 0.625000 0.750000
vt 0.375000 0.205382
vt 0.375000 0.250000
vt 0.375000 0.205382
vt 0.125000 0.705382
vt 0.125000 0.705382
vt 0.169618 0.750000
vt 0.375000 0.500000
vt 0.375000 0.544618
vt 0.375000 0.750000
vt 0.375000 0.794618
vt 0.375000 0.044618
vt 0.419618 1.000000
vt 0.625000 0.044618
vt 0.830382 0.500000
vt 0.625000 0.794618
vt 0.125000 0.544618
vt 0.169618 0.500000
vt 0.330382 0.500000
vt 0.330382 0.750000
vt 0.375000 1.000000
vt 0.375000 0.044618
vt 0.419618 0.794618
vt 0.580382 0.794618
vt 0.580382 0.955382
vt 0.419618 0.955382
vt 0.375000 0.294618
vt 0.375000 0.455382
vt 0.375000 0.455382
vt 0.375000 0.294618
vt 0.625000 0.705382
vt 0.625000 0.544618
vt 0.625000 0.544618
vt 0.625000 0.705382
vt 0.375000 0.794618
vt 0.375000 0.955382
vt 0.375000 0.955382
vt 0.375000 0.794618
vt 0.625000 0.455382
vt 0.625000 0.294618
vt 0.625000 0.294618
vt 0.625000 0.455382
vt 0.419618 0.294618
vt 0.580382 0.294618
vt 0.580382 0.455382
vt 0.419618 0.455382
vt 0.169618 0.544618
vt 0.330382 0.544618
vt 0.330382 0.705382
vt 0.169618 0.705382
vt 0.375000 0.544618
vt 0.375000 0.705382
vt 0.375000 0.705382
vt 0.375000 0.544618
vt 0.669618 0.544618
vt 0.830382 0.544618
vt 0.830382 0.705382
vt 0.669618 0.705382
vt 0.625000 0.955382
vt 0.625000 0.794618
vt 0.625000 0.794618
vt 0.625000 0.955382
vt 0.419618 0.044618
vt 0.580382 0.044618
vt 0.580382 0.205382
vt 0.419618 0.205382
vt 0.419618 0.544618
vt 0.580382 0.544618
vt 0.580382 0.705382
vt 0.419618 0.705382
vt 0.625000 0.205382
vt 0.625000 0.044618
vt 0.625000 0.044618
vt 0.625000 0.205382
vt 0.375000 1.000000
vt 0.375000 0.955382
vt 0.375000 1.000000
vt 0.625000 1.000000
vt 0.580382 1.000000
vt 0.375000 0.205382
vt 0.625000 1.000000
vt 0.625000 1.000000
vt 0.625000 0.955382
vt 0.625000 0.205382
vt 0.625000 0.250000
vt 0.669618 0.500000
vt 0.669618 0.500000
vt 0.625000 0.705382
vt 0.625000 0.750000
vt 0.375000 0.205382
vt 0.375000 0.250000
vt 0.375000 0.205382
vt 0.125000 0.705382
vt 0.125000 0.705382
vt 0.169618 0.750000
vt 0.375000 0.500000
vt 0.375000 0.544618
vt 0.375000 0.750000
vt 0.375000 0.794618
vt 0.375000 0.044618
vt 0.419618 1.000000
vt 0.625000 0.044618
vt 0.830382 0.500000
vt 0.625000 0.794618
vt 0.125000 0.544618
vt 0.169618 0.500000
vt 0.330382 0.500000
vt 0.330382 0.750000
vt 0.375000 1.000000
vt 0.375000 0.044618
vn 0.5907 0.0000 -0.8069
vn -0.9391 0.0000 -0.3437
vn 0.5907 -0.8069 0.0000
vn -0.9391 -0.3437 0.0000
vn 0.5907 0.0000 0.8069
vn -0.9391 0.0000 0.3437
vn 0.5907 0.8069 0.0000
vn -0.9391 0.3437 0.0000
vn 0.8069 0.0000 0.5907
vn 0.3437 0.0000 -0.9391
vn 0.0000 -0.8069 0.5907
vn 0.0000 -0.3437 -0.9391
vn -0.8069 0.0000 0.5907
vn -0.3437 0.0000 -0.9391
vn 0.0000 0.8069 0.5907
vn 0.0000 0.3437 -0.9391
vn -0.5907 0.0000 0.8069
vn 0.9391 0.0000 0.3437
vn -0.5907 -0.8069 0.0000
vn 0.9391 -0.3437 0.0000
vn -0.5907 0.0000 -0.8069
vn 0.9391 0.0000 -0.3437
vn -0.5907 0.8069 0.0000
vn 0.9391 0.3437 0.0000
vn -0.8069 0.0000 -0.5907
vn -0.3437 0.0000 0.9391
vn 0.0000 -0.8069 -0.5907
vn 0.0000 -0.3437 0.9391
vn 0.8069 0.0000 -0.5907
vn 0.3437 0.0000 0.9391
vn 0.0000 0.8069 -0.5907
vn 0.0000 0.3437 0.9391
vn 0.0000 0.5907 0.8069
vn 0.0000 -0.9391 0.3437
vn -0.8069 0.5907 0.0000
vn -0.3437 -0.9391 0.0000
vn 0.0000 0.5907 -0.8069
vn 0.0000 -0.9391 -0.3437
vn 0.8069 0.5907 0.0000
vn 0.3437 -0.9391 0.0000
vn 0.0000 -0.5907 0.8069
vn 0.0000 0.9391 0.3437
vn 0.8069 -0.5907 0.0000
vn 0.3437 0.9391 0.0000
vn 0.0000 -0.5907 -0.8069
vn 0.0000 0.9391 -0.3437
vn -0.8069 -0.5907 0.0000
vn -0.3437 0.9391 0.0000
vn 0.4488 -0.7812 0.4339
vn -0.4488 0.7812 -0.4339
vn 0.7158 0.0237 -0.6979
vn -0.5349 -0.6238 -0.5699
vn 0.5349 0.6238 0.5699
vn -0.7158 -0.0237 0.6979
vn -0.1888 -0.5692 0.8003
vn -0.8236 0.5356 0.1867
vn -0.8236 0.5357 0.1867
vn 0.8236 -0.5357 -0.1867
vn 0.1888 0.5692 -0.8003
vn 0.1547 -0.1046 0.9824
vn -0.3636 0.7975 0.4814
vn 0.4630 0.8249 -0.3244
vn 0.9812 -0.0772 0.1766
vn -0.9812 0.0772 -0.1766
vn -0.4630 -0.8249 0.3244
vn -0.1547 0.1046 -0.9824
vn 0.3636 -0.7975 -0.4814
vn -0.1280 0.4243 0.8964
vn 0.0609 0.9935 0.0962
vn 0.8844 0.4579 -0.0905
vn 0.6956 -0.1113 0.7098
vn 0.8236 -0.5356 -0.1867
vn -0.8844 -0.4579 0.0905
vn -0.6956 0.1113 -0.7098
vn 0.1280 -0.4243 -0.8964
vn -0.0609 -0.9935 -0.0962
vn 0.4339 -0.7812 -0.4488
vn -0.4339 0.7812 0.4488
vn -0.6979 0.0237 -0.7158
vn -0.5699 -0.6238 0.5349
vn 0.5699 0.6238 -0.5349
vn 0.6979 -0.0237 0.7158
vn 0.8003 -0.5692 0.1888
vn 0.1867 0.5356 0.8236
vn -0.1867 -0.5357 -0.8236
vn -0.1867 -0.5356 -0.8236
vn -0.8003 0.5692 -0.1888
vn 0.9824 -0.1046 -0.1547
vn 0.4814 0.7975 0.3636
vn -0.3244 0.8249 -0.4630
vn 0.1766 -0.0772 -0.9812
vn -0.1766 0.0772 0.9812
vn 0.3244 -0.8249 0.4630
vn -0.9824 0.1046 0.1547
vn -0.4814 -0.7975 -0.3636
vn 0.1867 0.5357 0.8236
vn 0.8964 0.4243 0.1280
vn 0.0962 0.9935 -0.0609
vn -0.0905 0.4579 -0.8844
vn 0.7098 -0.1113 -0.6956
vn 0.0905 -0.4579 0.8844
vn -0.7098 0.1113 0.6956
vn -0.8964 -0.4243 -0.1280
vn -0.0962 -0.9935 0.0609
usemtl None
s off
f 17/1/1 18/2/1 3/3/1 1/4/1
f 18/2/2 17/1/2 2/5/2 4/6/2
f 18/2/3 19/7/3 7/8/3 3/3/3
f 19/7/4 18/2/4 4/6/4 8/9/4
f 19/7/5 20/10/5 5/11/5 7/8/5
f 20/10/6 19/7/6 8/9/6 6/12/6
f 20/10/7 17/1/7 1/4/7 5/11/7
f 17/1/8 20/10/8 6/12/8 2/5/8
f 21/13/9 22/14/9 7/8/9 5/11/9
f 22/14/10 21/13/10 6/12/10 8/9/10
f 22/14/11 23/15/11 15/16/11 7/8/11
f 23/15/12 22/14/12 8/9/12 16/17/12
f 23/15/13 24/18/13 13/19/13 15/16/13
f 24/18/14 23/15/14 16/17/14 14/20/14
f 24/18/15 21/13/15 5/11/15 13/19/15
f 21/13/16 24/18/16 14/20/16 6/12/16
f 25/21/17 26/22/17 15/16/17 13/19/17
f 26/22/18 25/21/18 14/20/18 16/17/18
f 26/22/19 27/23/19 11/24/19 15/16/19
f 27/23/20 26/22/20 16/17/20 12/25/20
f 27/23/21 28/26/21 9/27/21 11/24/21
f 28/26/22 27/23/22 12/25/22 10/28/22
f 28/26/23 25/21/23 13/19/23 9/27/23
f 25/21/24 28/26/24 10/28/24 14/20/24
f 29/29/25 30/30/25 11/24/25 9/27/25
f 30/30/26 29/29/26 10/28/26 12/25/26
f 30/30/27 31/31/27 3/32/27 11/24/27
f 31/31/28 30/30/28 12/25/28 4/33/28
f 31/31/29 32/34/29 1/35/29 3/32/29
f 32/34/30 31/31/30 4/33/30 2/36/30
f 32/34/31 29/29/31 9/27/31 1/35/31
f 29/29/32 32/34/32 2/36/32 10/28/32
f 33/37/33 34/38/33 13/19/33 5/39/33
f 34/38/34 33/37/34 6/40/34 14/20/34
f 34/38/35 35/41/35 9/27/35 13/19/35
f 35/41/36 34/38/36 14/20/36 10/28/36
f 35/41/37 36/42/37 1/43/37 9/27/37
f 36/42/38 35/41/38 10/28/38 2/44/38
f 36/42/39 33/37/39 5/39/39 1/43/39
f 33/37/40 36/42/40 2/44/40 6/40/40
f 37/45/41 38/46/41 7/47/41 15/16/41
f 38/46/42 37/45/42 16/17/42 8/48/42
f 38/46/43 39/49/43 3/50/43 7/47/43
f 39/49/44 38/46/44 8/48/44 4/51/44
f 39/49/45 40/52/45 11/24/45 3/50/45
f 40/52/46 39/49/46 4/51/46 12/25/46
f 40/52/47 37/45/47 15/16/47 11/24/47
f 37/45/48 40/52/48 12/25/48 16/17/48
f 59/53/49 63/54/49 45/55/49 43/56/49
f 52/57/50 65/58/50 91/59/50 86/60/50
f 61/61/51 70/62/51 81/63/51 82/64/51
f 60/65/49 42/66/49 90/67/49 95/68/49
f 69/69/50 54/70/50 78/71/50 79/72/50
f 51/73/50 55/74/50 72/75/50 66/76/50
f 87/77/52 93/78/52 96/79/52 89/80/52
f 68/81/51 57/82/51 94/83/51 92/84/51
f 80/85/53 77/86/53 75/87/53 83/88/53
f 46/89/49 62/90/49 84/91/49 74/92/49
f 44/93/54 48/94/54 56/95/54 50/96/54
f 67/97/51 71/98/51 64/99/51 58/100/51
f 53/101/54 47/102/54 73/103/54 76/104/54
f 41/105/55 42/66/55 43/106/55 44/107/55
f 45/55/55 46/89/55 47/108/55 48/109/55
f 49/110/56 50/96/56 51/73/56 52/57/56
f 53/101/57 54/70/57 55/74/57 56/95/57
f 57/82/58 58/100/58 59/53/58 60/65/58
f 61/61/58 62/90/58 63/54/58 64/99/58
f 65/58/59 66/76/59 67/97/59 68/81/59
f 69/69/59 70/62/59 71/98/59 72/75/59
f 73/111/60 74/112/60 75/113/60
f 76/104/61 77/114/61 78/115/61
f 79/116/62 80/117/62 81/63/62
f 82/64/63 83/118/63 84/119/63
f 85/120/64 86/121/64 87/122/64
f 88/123/65 89/124/65 90/125/65
f 91/126/66 92/84/66 93/127/66
f 94/128/67 95/68/67 96/129/67
f 49/110/54 41/130/54 44/93/54 50/96/54
f 43/56/55 45/55/55 48/109/55 44/131/55
f 47/102/54 53/101/54 56/95/54 48/94/54
f 55/74/56 51/73/56 50/96/56 56/95/56
f 65/58/50 52/57/50 51/73/50 66/76/50
f 54/70/50 69/69/50 72/75/50 55/74/50
f 71/98/59 67/97/59 66/76/59 72/75/59
f 57/82/51 68/81/51 67/97/51 58/100/51
f 70/62/51 61/61/51 64/99/51 71/98/51
f 63/54/58 59/53/58 58/100/58 64/99/58
f 42/66/49 60/65/49 59/53/49 43/56/49
f 62/90/49 46/89/49 45/55/49 63/54/49
f 75/132/68 77/114/68 76/104/68 73/103/68
f 77/86/69 80/85/69 79/116/69 78/133/69
f 80/85/70 83/88/70 82/64/70 81/63/70
f 83/134/71 75/113/71 74/92/71 84/91/71
f 61/61/72 82/64/72 84/91/72 62/90/72
f 73/111/55 47/108/55 46/89/55 74/92/55
f 53/101/57 76/104/57 78/71/57 54/70/57
f 81/63/59 70/62/59 69/69/59 79/72/59
f 87/77/73 89/80/73 88/123/73 85/135/73
f 93/78/74 87/77/74 86/136/74 91/137/74
f 96/79/75 93/78/75 92/84/75 94/83/75
f 89/80/76 96/79/76 95/138/76 90/125/76
f 68/81/59 92/84/59 91/59/59 65/58/59
f 85/120/56 49/110/56 52/57/56 86/60/56
f 90/67/55 42/66/55 41/105/55 88/139/55
f 60/65/72 95/68/72 94/83/72 57/82/72
f 41/130/54 49/110/54 85/120/54 88/140/54
f 115/141/77 119/142/77 101/143/77 99/144/77
f 108/145/78 121/146/78 147/147/78 142/148/78
f 117/149/79 126/150/79 137/151/79 138/152/79
f 116/153/77 98/154/77 146/155/77 151/156/77
f 125/157/78 110/158/78 134/159/78 135/160/78
f 107/161/78 111/162/78 128/163/78 122/164/78
f 143/165/80 149/166/80 152/167/80 145/168/80
f 124/169/79 113/170/79 150/171/79 148/172/79
f 136/173/81 133/174/81 131/175/81 139/176/81
f 102/177/77 118/178/77 140/179/77 130/180/77
f 100/181/82 104/182/82 112/183/82 106/184/82
f 123/185/79 127/186/79 120/187/79 114/188/79
f 109/189/82 103/190/82 129/191/82 132/192/82
f 97/193/83 98/154/83 99/194/83 100/195/83
f 101/143/83 102/177/83 103/196/83 104/197/83
f 105/198/84 106/184/84 107/161/84 108/145/84
f 109/189/84 110/158/84 111/162/84 112/183/84
f 113/170/85 114/188/85 115/141/85 116/153/85
f 117/149/86 118/178/86 119/142/86 120/187/86
f 121/146/87 122/164/87 123/185/87 124/169/87
f 125/157/87 126/150/87 127/186/87 128/163/87
f 129/199/88 130/200/88 131/201/88
f 132/192/89 133/202/89 134/203/89
f 135/204/90 136/205/90 137/151/90
f 138/152/91 139/206/91 140/207/91
f 141/208/92 142/209/92 143/210/92
f 144/211/93 145/212/93 146/213/93
f 147/214/94 148/172/94 149/215/94
f 150/216/95 151/156/95 152/217/95
f 105/198/82 97/218/82 100/181/82 106/184/82
f 99/144/83 101/143/83 104/197/83 100/219/83
f 103/190/82 109/189/82 112/183/82 104/182/82
f 111/162/96 107/161/96 106/184/96 112/183/96
f 121/146/78 108/145/78 107/161/78 122/164/78
f 110/158/78 125/157/78 128/163/78 111/162/78
f 127/186/87 123/185/87 122/164/87 128/163/87
f 113/170/79 124/169/79 123/185/79 114/188/79
f 126/150/79 117/149/79 120/187/79 127/186/79
f 119/142/86 115/141/86 114/188/86 120/187/86
f 98/154/77 116/153/77 115/141/77 99/144/77
f 118/178/77 102/177/77 101/143/77 119/142/77
f 131/220/97 133/202/97 132/192/97 129/191/97
f 133/174/98 136/173/98 135/204/98 134/221/98
f 136/173/99 139/176/99 138/152/99 137/151/99
f 139/222/100 131/201/100 130/180/100 140/179/100
f 117/149/86 138/152/86 140/179/86 118/178/86
f 129/199/83 103/196/83 102/177/83 130/180/83
f 109/189/96 132/192/96 134/159/96 110/158/96
f 137/151/87 126/150/87 125/157/87 135/160/87
f 143/165/101 145/168/101 144/211/101 141/223/101
f 149/166/102 143/165/102 142/224/102 147/225/102
f 152/167/103 149/166/103 148/172/103 150/171/103
f 145/168/104 152/167/104 151/226/104 146/213/104
f 124/169/87 148/172/87 147/147/87 121/146/87
f 141/208/84 105/198/84 108/145/84 142/148/84
f 146/155/83 98/154/83 97/193/83 144/227/83
f 116/153/86 151/156/86 150/171/86 113/170/86
f 97/218/82 105/198/82 141/208/82 144/228/82
