# Blender v3.1.2 OBJ File: ''
# www.blender.org
mtllib PlatGra.mtl
o Esfera_UV.003
v 0.022994 -0.342390 -0.952589
v 0.019182 -0.369225 -0.759257
v 0.046903 -0.863862 -0.255128
v -0.791614 -0.354448 -0.846944
v -1.075866 -0.410598 -0.657860
v -1.362759 -0.312559 -0.386239
v 0.334302 -0.058082 -0.889489
v 0.314170 -0.381689 -0.785857
v 0.238778 -0.654903 -0.523152
v 0.114883 -0.853021 -0.294192
v -1.366865 -0.402897 0.053184
v -1.310892 -0.320180 0.385627
v -1.104608 -0.415380 0.652246
v 0.695860 0.004552 -0.576470
v 0.581388 -0.403016 -0.631123
v 0.419428 -0.767576 -0.365873
v 0.218344 -0.885377 -0.155893
v -0.736530 -0.345606 0.876953
v -0.013683 -0.291968 0.864974
v 0.323292 -0.356193 0.777004
v 0.944218 0.002715 -0.349683
v 0.715133 -0.451018 -0.344840
v 0.531124 -0.677726 -0.234321
v 0.302719 -0.877449 -0.109140
v 0.737561 -0.354697 0.634337
v 0.866479 -0.356309 0.368748
v 0.938162 -0.354588 0.000161
v 0.943906 0.011298 0.026938
v 0.833670 -0.356541 0.005139
v 0.621774 -0.717990 0.019584
v 0.302275 -0.844151 0.002385
v 0.838997 -0.366700 -0.302444
v 0.684520 -0.441827 -0.706511
v 0.415240 -0.382826 -0.870478
v 0.815015 -0.027769 0.291103
v 0.789977 -0.365936 0.292156
v 0.545421 -0.717564 0.233491
v 0.229141 -0.865843 0.124722
v 0.372438 -0.313384 -0.815544
v 0.671516 -0.250377 -0.718733
v 0.962087 -0.180920 -0.418045
v 0.583485 -0.016613 0.468653
v 0.626864 -0.452388 0.634362
v 0.476324 -0.694724 0.367547
v 0.274411 -0.804750 0.253221
v 1.000308 -0.193354 0.007018
v 0.853026 -0.244162 0.346079
v 0.657777 -0.192873 0.620826
v 0.320225 0.042605 0.774724
v 0.386057 -0.354647 0.784425
v 0.257999 -0.687016 0.590975
v 0.104441 -0.781588 0.259425
v 0.417988 -0.292538 0.792639
v 0.096376 -0.182371 0.907443
v -0.783072 -0.236366 0.933285
v -1.132750 -0.229837 0.737265
v 0.013726 -0.000613 0.831175
v -0.046273 -0.375835 0.826122
v -0.002971 -0.708292 0.582796
v -0.015011 -0.893691 0.332091
v -1.350908 -0.211129 0.446010
v -1.365086 -0.194656 -0.066830
v -1.291968 -0.251361 -0.427380
v -0.770026 -0.090819 0.857198
v -0.661441 -0.363119 0.809696
v -0.671131 -0.716528 0.506169
v -0.516527 -0.853278 0.261992
v -1.015375 -0.263993 -0.690229
v -0.773550 -0.190374 -0.906007
v 0.051838 -0.226289 -1.012094
v -1.041526 -0.034177 0.622494
v -1.000002 -0.451807 0.649206
v -0.785124 -0.702788 0.395294
v -0.610342 -0.836246 0.249437
v -0.030384 -0.881934 0.010278
v 0.019189 -0.037546 -1.108965
v -0.852519 -0.031887 -0.948287
v -1.129796 0.007748 -0.729589
v -1.303445 0.031210 0.410952
v -1.175758 -0.364458 0.283403
v -0.929174 -0.736756 0.292363
v -0.680002 -0.838536 0.118028
v -1.336358 -0.030060 -0.501378
v -1.498239 -0.077948 -0.046003
v -1.463342 -0.019122 0.458879
v -1.487919 0.013402 0.041605
v -1.245781 -0.417901 -0.030163
v -0.924555 -0.695679 0.074916
v -0.696960 -0.832490 0.022983
v -1.150648 -0.097095 0.700393
v -0.827996 -0.159299 0.912588
v 0.059387 -0.065191 0.902393
v -1.274103 0.001809 -0.390668
v -1.206226 -0.397329 -0.323653
v -0.942815 -0.709996 -0.250117
v -0.684999 -0.836753 -0.087531
v 0.429251 -0.062665 0.888647
v 0.738541 -0.066953 0.681048
v 0.959533 -0.013079 0.431052
v -1.042351 0.020000 -0.598764
v -1.025793 -0.348450 -0.547411
v -0.765887 -0.667738 -0.372857
v -0.636510 -0.839744 -0.202014
v 1.103457 -0.033768 -0.027391
v 0.958065 -0.050792 -0.393717
v 0.731083 -0.086824 -0.824822
v -0.779101 0.046281 -0.832959
v -0.730817 -0.379768 -0.777521
v -0.634735 -0.724518 -0.540707
v -0.553511 -0.883100 -0.252716
v 0.465708 -0.131871 -0.906383
v 0.066947 0.020834 -1.030837
v -0.011120 -0.700388 -0.585653
v -0.796469 -0.057698 0.034583
v 0.018044 0.014847 0.046107
v -1.278598 -0.043083 0.028845
v -1.055755 -0.033164 0.039172
v -0.774568 -0.031475 0.427674
v 0.066070 -0.000260 0.463501
v -1.107782 -0.004845 0.348509
v 0.023260 -0.003317 0.557343
v -0.751119 -0.016570 0.659272
v -0.055859 -0.034095 0.787517
v -0.013190 0.012969 -0.373679
v -0.702205 0.062867 -0.354889
v -0.994236 0.035029 -0.291001
v -0.760290 0.037349 -0.661491
v -0.020397 0.024073 -0.675108
v 0.002488 0.027957 -0.887482
v 0.345714 -0.000464 -0.647319
v 0.330495 -0.007884 0.539995
v 0.321446 -0.003717 -0.383734
v 0.288164 -0.043322 0.442237
v 0.334271 -0.062336 0.000306
v 0.722144 0.003545 -0.015454
v 0.668992 -0.010407 -0.347316
v 0.704434 0.005492 0.284438
v 0.866755 -0.025763 0.023373
v 0.001306 -0.416464 -0.723682
v -0.735651 -0.410035 -0.576818
v -0.889578 -0.470679 -0.498327
v -1.078795 -0.431875 -0.328152
v -1.155309 -0.446934 -0.030207
v -1.100355 -0.366841 0.307513
v -1.032731 -0.451735 0.487025
v -0.680015 -0.414377 0.731963
v -0.037338 -0.386589 0.819853
v 0.274459 -0.358417 0.719908
v 0.535370 -0.483772 0.612468
v 0.643387 -0.426991 0.251552
v 0.788186 -0.402432 -0.025202
v 0.664295 -0.414148 -0.254866
v 0.500400 -0.430314 -0.525251
v 0.279788 -0.474580 -0.627418
vt 0.750000 0.125000
vt 0.750000 0.250000
vt 0.687500 0.250000
vt 0.687500 0.125000
vt 0.750000 0.375000
vt 0.750000 0.500000
vt 0.687500 0.500000
vt 0.687500 0.375000
vt 0.718750 0.000000
vt 0.625000 0.500000
vt 0.625000 0.375000
vt 0.656250 0.000000
vt 0.625000 0.125000
vt 0.625000 0.250000
vt 0.593750 0.000000
vt 0.562500 0.125000
vt 0.562500 0.375000
vt 0.562500 0.250000
vt 0.562500 0.500000
vt 0.500000 0.250000
vt 0.500000 0.125000
vt 0.500000 0.500000
vt 0.500000 0.375000
vt 0.531250 0.000000
vt 0.437500 0.250000
vt 0.437500 0.125000
vt 0.437500 0.500000
vt 0.437500 0.375000
vt 0.468750 0.000000
vt 0.406250 0.000000
vt 0.375000 0.125000
vt 0.375000 0.375000
vt 0.375000 0.250000
vt 0.375000 0.500000
vt 0.343750 0.000000
vt 0.312500 0.125000
vt 0.312500 0.375000
vt 0.312500 0.250000
vt 0.312500 0.500000
vt 0.250000 0.250000
vt 0.250000 0.125000
vt 0.250000 0.500000
vt 0.250000 0.375000
vt 0.281250 0.000000
vt 0.187500 0.250000
vt 0.187500 0.125000
vt 0.187500 0.500000
vt 0.187500 0.375000
vt 0.218750 0.000000
vt 0.156250 0.000000
vt 0.125000 0.125000
vt 0.125000 0.375000
vt 0.125000 0.250000
vt 0.125000 0.500000
vt 0.062500 0.375000
vt 0.062500 0.250000
vt 0.062500 0.125000
vt 0.062500 0.500000
vt 0.093750 0.000000
vt 0.000000 0.250000
vt 0.000000 0.125000
vt 0.000000 0.500000
vt 0.000000 0.375000
vt 0.031250 0.000000
vt 1.000000 0.375000
vt 1.000000 0.500000
vt 0.937500 0.500000
vt 0.937500 0.375000
vt 0.968750 0.000000
vt 1.000000 0.125000
vt 0.937500 0.125000
vt 1.000000 0.250000
vt 0.937500 0.250000
vt 0.906250 0.000000
vt 0.875000 0.125000
vt 0.875000 0.375000
vt 0.875000 0.250000
vt 0.875000 0.500000
vt 0.812500 0.250000
vt 0.812500 0.125000
vt 0.843750 0.000000
vt 0.812500 0.375000
vt 0.781250 0.000000
vt 0.312500 0.500000
vt 0.375000 0.500000
vt 0.375000 0.500000
vt 0.312500 0.500000
vt 0.250000 0.500000
vt 0.250000 0.500000
vt 0.062500 0.500000
vt 0.125000 0.500000
vt 0.125000 0.500000
vt 0.062500 0.500000
vt 0.812500 0.500000
vt 0.875000 0.500000
vt 0.875000 0.500000
vt 0.812500 0.500000
vt 0.937500 0.500000
vt 0.937500 0.500000
vt 0.000000 0.500000
vt 0.000000 0.500000
vt 0.687500 0.500000
vt 0.750000 0.500000
vt 0.750000 0.500000
vt 0.687500 0.500000
vt 0.187500 0.500000
vt 0.187500 0.500000
vt 0.437500 0.500000
vt 0.437500 0.500000
vt 0.500000 0.500000
vt 0.500000 0.500000
vt 1.000000 0.500000
vt 1.000000 0.500000
vt 0.562500 0.500000
vt 0.625000 0.500000
vt 0.625000 0.500000
vt 0.562500 0.500000
vt 0.000000 0.500000
vt 0.062500 0.500000
vt 0.812500 0.500000
vt 0.875000 0.500000
vt 0.312500 0.500000
vt 0.375000 0.500000
vt 0.437500 0.500000
vt 0.687500 0.500000
vt 0.750000 0.500000
vt 0.500000 0.500000
vt 0.625000 0.500000
vt 0.187500 0.500000
vt 0.125000 0.500000
vt 0.937500 0.500000
vt 1.000000 0.500000
vt 0.250000 0.500000
vt 0.562500 0.500000
vt 0.812500 0.500000
vt 0.000000 0.000000
vt 0.000000 0.000000
vt 0.000000 0.000000
vt 0.000000 0.000000
vt 0.000000 0.000000
vt 0.000000 0.000000
vt 0.000000 0.000000
vt 0.000000 0.000000
vt 0.000000 0.000000
vt 0.000000 0.000000
vt 0.000000 0.000000
vt 0.000000 0.000000
vt 0.000000 0.000000
vt 0.000000 0.000000
vt 0.000000 0.000000
vt 0.000000 0.000000
vt 0.000000 0.000000
vt 0.000000 0.000000
vt 0.000000 0.000000
vt 0.000000 0.000000
vt 0.000000 0.000000
vt 0.000000 0.000000
vt 0.000000 0.000000
vt 0.000000 0.000000
vt 0.000000 0.000000
vt 0.000000 0.000000
vt 0.000000 0.000000
vt 0.000000 0.000000
vt 0.000000 0.000000
vt 0.000000 0.000000
vt 0.000000 0.000000
vt 0.000000 0.000000
vt 0.000000 0.000000
vt 0.000000 0.000000
vt 0.000000 0.000000
vt 0.000000 0.000000
vt 0.000000 0.000000
vt 0.000000 0.000000
vt 0.000000 0.000000
vt 0.000000 0.000000
vt 0.000000 0.000000
vt 0.250000 0.500000
vt 0.187500 0.500000
vt 0.125000 0.500000
vt 0.562500 0.500000
vt 0.500000 0.500000
vt 0.750000 0.500000
vt 0.687500 0.500000
vt 0.062500 0.500000
vt 0.625000 0.500000
vt 0.375000 0.500000
vt 0.312500 0.500000
vt 0.000000 0.500000
vt 0.875000 0.500000
vt 0.812500 0.500000
vt 1.000000 0.500000
vt 0.937500 0.500000
vt 0.437500 0.500000
vn 0.1861 -0.8350 -0.5178
vn 0.1024 -0.4705 -0.8764
vn 0.1430 -0.9894 -0.0257
vn 0.0887 -0.5932 -0.8002
vn 0.5958 -0.1624 -0.7866
vn -0.1115 -0.9829 -0.1465
vn 0.2775 -0.6718 -0.6868
vn 0.1137 -0.8444 -0.5236
vn 0.0449 -0.9951 0.0878
vn 0.6969 -0.6280 -0.3465
vn 0.5281 -0.8407 -0.1197
vn 0.7598 -0.2688 -0.5920
vn 0.4864 -0.8630 -0.1365
vn 0.9207 -0.3783 -0.0962
vn 0.1148 -0.9517 0.2846
vn 0.7867 -0.5765 -0.2208
vn 0.3757 -0.9203 0.1088
vn 0.9418 -0.1886 0.2783
vn 0.1096 -0.9879 -0.1096
vn 0.8220 -0.5378 0.1874
vn -0.1522 -0.8707 0.4676
vn 0.7269 -0.6315 0.2700
vn 0.3114 -0.8966 0.3149
vn 0.7768 0.1502 0.6116
vn -0.1074 -0.9007 0.4209
vn 0.3599 -0.6833 0.6353
vn 0.1220 -0.9354 0.3320
vn 0.6914 0.2345 0.6833
vn 0.3613 -0.8763 0.3186
vn 0.1311 0.0070 0.9913
vn 0.6638 -0.7456 -0.0589
vn 0.0740 -0.5542 0.8291
vn -0.0892 -0.8463 0.5252
vn 0.0113 -0.0801 0.9967
vn -0.0757 -0.9966 -0.0328
vn -0.0587 -0.6241 0.7791
vn -0.1519 -0.9714 -0.1828
vn -0.2781 -0.7005 0.6572
vn -0.3291 -0.8833 0.3339
vn -0.5330 -0.1411 0.8343
vn -0.6653 -0.6422 0.3808
vn -0.2348 -0.9052 0.3542
vn -0.8035 -0.2350 0.5470
vn -0.0586 -0.9971 0.0484
vn -0.4865 -0.8665 -0.1115
vn -0.8196 -0.4515 0.3526
vn -0.0748 -0.9959 -0.0500
vn -0.7581 -0.6431 0.1083
vn -0.8898 -0.3304 -0.3147
vn -0.0734 -0.9968 0.0305
vn -0.7055 -0.7080 -0.0314
vn -0.4845 -0.8737 0.0443
vn -0.0684 -0.9977 -0.0029
vn -0.4550 -0.6256 -0.6338
vn -0.2962 -0.8562 -0.4232
vn -0.6967 -0.1836 -0.6935
vn -0.6123 -0.7475 -0.2575
vn -0.2076 -0.8849 0.4169
vn -0.5962 -0.6288 -0.4992
vn 0.0134 -0.8856 -0.4642
vn 0.0317 -0.9978 -0.0587
vn -0.0035 -0.5193 -0.8546
vn -0.4377 0.0374 -0.8983
vn -0.1457 0.4651 -0.8732
vn 0.7616 0.4199 -0.4937
vn 0.5944 0.0850 0.7996
vn 0.6626 -0.1598 0.7317
vn 0.9906 0.1024 -0.0902
vn -0.3648 -0.0045 0.9311
vn -0.0498 0.4229 -0.9048
vn -0.8208 -0.3400 -0.4591
vn -0.9473 0.1524 -0.2818
vn 0.4129 0.4767 -0.7760
vn 0.9737 -0.2114 0.0851
vn -0.8140 0.3850 0.4350
vn -0.4044 -0.2314 0.8849
vn -0.8490 0.5035 0.1605
vn 0.1243 0.3690 0.9211
vn 0.7776 0.6255 -0.0635
vn 0.5745 0.3943 0.7172
vn -0.5592 0.4503 -0.6961
vn -0.6541 0.5530 -0.5161
vn -0.3175 0.4696 0.8238
vn 0.1515 0.4093 0.8998
vn -0.8289 0.4817 -0.2845
vn -0.3445 0.5758 0.7415
vn 0.2289 -0.8212 -0.5227
vn 0.8440 0.4807 0.2379
vn 0.6547 0.3633 0.6628
vn 0.1877 -0.9802 0.0627
vn 0.0606 -0.6910 -0.7203
vn -0.0007 -0.9950 -0.1001
vn 0.7095 0.2356 -0.6642
vn -0.0834 -0.9949 -0.0568
vn 0.5111 -0.0817 -0.8556
vn -0.4400 -0.8904 0.1166
vn 0.6249 -0.7448 0.2340
vn 0.1495 -0.8723 -0.4656
vn -0.7993 0.2967 0.5226
vn 0.6500 -0.7537 -0.0970
vn -0.0189 -0.7446 -0.6673
vn -0.4184 -0.8398 0.3459
vn -0.2913 -0.9334 -0.2093
vn 0.0961 -0.8406 0.5331
vn -0.1410 0.2412 -0.9602
vn -0.4429 -0.6910 0.5713
vn -0.1384 -0.8774 0.4594
vn -0.6327 -0.1537 -0.7590
vn 0.1748 -0.9557 0.2368
vn -0.9223 0.3230 0.2121
vn -0.1073 -0.3699 -0.9229
vn -0.0089 -0.1351 -0.9908
vn -0.2508 -0.9659 -0.0648
vn 0.1160 -0.8688 0.4814
vn 0.0486 -0.9972 -0.0573
vn 0.1066 -0.9938 0.0319
vn -0.2651 -0.9585 -0.1054
vn -0.0441 -0.9889 0.1419
vn -0.2471 -0.9541 0.1694
vn 0.0142 -0.9895 -0.1440
vn -0.0949 -0.9928 0.0730
vn -0.2174 -0.9761 0.0049
vn 0.0623 -0.9980 0.0083
vn -0.0095 -0.9996 -0.0268
vn -0.1984 -0.9785 -0.0568
vn -0.0764 -0.9832 0.1660
vn 0.0999 -0.9347 -0.3411
vn 0.0291 -0.9989 0.0381
vn 0.1075 -0.9922 0.0627
vn 0.0187 -0.9720 -0.2342
vn 0.1973 -0.9041 0.3790
vn 0.1147 -0.9837 -0.1383
vn -0.0435 -0.9987 0.0283
vn -0.0264 -0.9655 -0.2590
vn -0.1477 -0.9871 -0.0616
vn -0.0223 -0.9992 -0.0336
vn 0.0894 -0.9947 0.0502
vn -0.0580 -0.9979 -0.0271
vn -0.1595 -0.9808 0.1119
vn -0.0206 -0.9990 0.0404
vn -0.0332 -0.9720 0.2328
vn 0.0032 -0.9993 -0.0366
vn 0.0820 -0.9942 -0.0696
vn 0.1497 -0.9879 0.0408
vn 0.0259 -0.9771 0.2113
vn 0.0836 -0.9940 0.0703
vn -0.2332 -0.9720 -0.0286
vn 0.0470 -0.9971 -0.0596
vn -0.2607 -0.9233 -0.2820
vn -0.0366 -0.9991 -0.0219
vn 0.4321 -0.9016 0.0209
vn 0.4289 -0.9001 0.0761
vn -0.0089 0.7576 -0.6527
vn 0.0541 0.9523 -0.3003
vn -0.2763 0.9583 0.0729
vn 0.0461 0.9376 0.3448
vn 0.3836 0.9138 0.1334
vn -0.1416 0.9877 -0.0669
vn -0.1370 0.6895 -0.7112
vn 0.1102 0.9615 -0.2518
vn -0.0723 0.9521 0.2971
vn -0.0509 0.9876 0.1484
vn 0.3164 0.9336 0.1680
vn -0.1391 0.7662 -0.6273
vn 0.3298 0.9419 0.0637
vn -0.4045 0.9117 -0.0727
vn -0.2829 0.9575 -0.0559
vn 0.0370 0.9678 0.2489
usemtl Materiais.003
s off
f 3/1/1 113/2/1 9/3/1 10/4/1
f 2/5/2 112/6/2 7/7/2 8/8/2
f 75/9/3 3/1/3 10/4/3
f 113/2/4 2/5/4 8/8/4 9/3/4
f 8/8/5 7/7/5 14/10/5 15/11/5
f 75/12/6 10/4/6 17/13/6
f 9/3/7 8/8/7 15/11/7 16/14/7
f 10/4/8 9/3/8 16/14/8 17/13/8
f 75/15/9 17/13/9 24/16/9
f 16/14/10 15/11/10 22/17/10 23/18/10
f 17/13/11 16/14/11 23/18/11 24/16/11
f 15/11/12 14/10/12 21/19/12 22/17/12
f 24/16/13 23/18/13 30/20/13 31/21/13
f 22/17/14 21/19/14 28/22/14 29/23/14
f 75/24/15 24/16/15 31/21/15
f 23/18/16 22/17/16 29/23/16 30/20/16
f 31/21/17 30/20/17 37/25/17 38/26/17
f 29/23/18 28/22/18 35/27/18 36/28/18
f 75/29/19 31/21/19 38/26/19
f 30/20/20 29/23/20 36/28/20 37/25/20
f 75/30/21 38/26/21 45/31/21
f 37/25/22 36/28/22 43/32/22 44/33/22
f 38/26/23 37/25/23 44/33/23 45/31/23
f 36/28/24 35/27/24 42/34/24 43/32/24
f 75/35/25 45/31/25 52/36/25
f 44/33/26 43/32/26 50/37/26 51/38/26
f 45/31/27 44/33/27 51/38/27 52/36/27
f 43/32/28 42/34/28 49/39/28 50/37/28
f 52/36/29 51/38/29 59/40/29 60/41/29
f 50/37/30 49/39/30 57/42/30 58/43/30
f 75/44/31 52/36/31 60/41/31
f 51/38/32 50/37/32 58/43/32 59/40/32
f 60/41/33 59/40/33 66/45/33 67/46/33
f 58/43/34 57/42/34 64/47/34 65/48/34
f 75/49/35 60/41/35 67/46/35
f 59/40/36 58/43/36 65/48/36 66/45/36
f 75/50/37 67/46/37 74/51/37
f 66/45/38 65/48/38 72/52/38 73/53/38
f 67/46/39 66/45/39 73/53/39 74/51/39
f 65/48/40 64/47/40 71/54/40 72/52/40
f 73/53/41 72/52/41 80/55/41 81/56/41
f 74/51/42 73/53/42 81/56/42 82/57/42
f 72/52/43 71/54/43 79/58/43 80/55/43
f 75/59/44 74/51/44 82/57/44
f 82/57/45 81/56/45 88/60/45 89/61/45
f 80/55/46 79/58/46 86/62/46 87/63/46
f 75/64/47 82/57/47 89/61/47
f 81/56/48 80/55/48 87/63/48 88/60/48
f 87/65/49 86/66/49 93/67/49 94/68/49
f 75/69/50 89/70/50 96/71/50
f 88/72/51 87/65/51 94/68/51 95/73/51
f 89/70/52 88/72/52 95/73/52 96/71/52
f 75/74/53 96/71/53 103/75/53
f 95/73/54 94/68/54 101/76/54 102/77/54
f 96/71/55 95/73/55 102/77/55 103/75/55
f 94/68/56 93/67/56 100/78/56 101/76/56
f 103/75/57 102/77/57 109/79/57 110/80/57
f 75/81/58 103/75/58 110/80/58
f 102/77/59 101/76/59 108/82/59 109/79/59
f 110/80/60 109/79/60 113/2/60 3/1/60
f 75/83/61 110/80/61 3/1/61
f 109/79/62 108/82/62 2/5/62 113/2/62
usemtl Materiais.004
f 53/84/63 48/85/63 25/86/63 20/87/63
f 54/88/64 53/84/64 20/87/64 19/89/64
f 61/90/65 56/91/65 13/92/65 12/93/65
f 69/94/66 68/95/66 5/96/66 4/97/66
f 68/95/67 63/98/67 6/99/67 5/96/67
f 62/100/68 61/90/68 12/93/68 11/101/68
f 39/102/69 70/103/69 1/104/69 34/105/69
f 55/106/70 54/88/70 19/89/70 18/107/70
f 48/85/71 47/108/71 26/109/71 25/86/71
f 47/108/72 46/110/72 27/111/72 26/109/72
f 56/91/73 55/106/73 18/107/73 13/92/73
f 63/98/74 62/112/74 11/113/74 6/99/74
f 41/114/75 40/115/75 33/116/75 32/117/75
f 40/115/76 39/102/76 34/105/76 33/116/76
f 46/110/77 41/114/77 32/117/77 27/111/77
f 70/103/78 69/94/78 4/97/78 1/104/78
f 84/118/79 85/119/79 61/90/79 62/100/79
f 77/120/80 78/121/80 68/95/80 69/94/80
f 97/122/81 98/123/81 48/85/81 53/84/81
f 98/123/82 99/124/82 47/108/82 48/85/82
f 111/125/83 76/126/83 70/103/83 39/102/83
f 76/126/84 77/120/84 69/94/84 70/103/84
f 99/124/85 104/127/85 46/110/85 47/108/85
f 106/128/86 111/125/86 39/102/86 40/115/86
f 71/54/87 64/47/87 91/129/87 90/130/87
f 83/131/88 84/132/88 62/112/88 63/98/88
f 78/121/89 83/131/89 63/98/89 68/95/89
f 100/78/90 93/67/90 83/131/90 78/121/90
f 64/47/91 57/42/91 92/133/91 91/129/91
f 42/34/92 35/27/92 99/124/92 98/123/92
f 85/119/93 90/130/93 56/91/93 61/90/93
f 35/27/94 28/22/94 104/127/94 99/124/94
f 90/130/95 91/129/95 55/106/95 56/91/95
f 28/22/96 21/19/96 105/134/96 104/127/96
f 93/67/97 86/66/97 84/132/97 83/131/97
f 79/58/98 71/54/98 90/130/98 85/119/98
f 105/134/99 106/128/99 40/115/99 41/114/99
f 86/62/100 79/58/100 85/119/100 84/118/100
f 57/42/101 49/39/101 97/122/101 92/133/101
f 21/19/102 14/10/102 106/128/102 105/134/102
f 49/39/103 42/34/103 98/123/103 97/122/103
f 112/6/104 107/135/104 77/120/104 76/126/104
f 92/133/105 97/122/105 53/84/105 54/88/105
f 7/7/106 112/6/106 76/126/106 111/125/106
f 14/10/107 7/7/107 111/125/107 106/128/107
f 101/76/108 100/78/108 107/135/108 108/82/108
f 107/135/109 100/78/109 78/121/109 77/120/109
f 104/127/110 105/134/110 41/114/110 46/110/110
f 108/82/111 107/135/111 112/6/111 2/5/111
f 91/129/112 92/133/112 54/88/112 55/106/112
f 112/136/113 7/137/113 129/138/113
f 57/139/114 64/140/114 123/141/114
f 107/142/115 127/143/115 100/144/115
f 100/144/116 126/145/116 93/146/116
f 93/146/117 116/147/117 86/148/117
f 116/147/118 117/149/118 120/150/118 79/151/118
f 86/148/119 116/147/119 79/151/119
f 115/152/120 114/153/120 125/154/120 124/155/120
f 117/149/121 114/153/121 118/156/121 120/150/121
f 115/152/122 134/157/122 133/158/122 119/159/122
f 119/159/123 118/156/123 114/153/123 115/152/123
f 120/150/124 118/156/124 122/160/124 71/161/124
f 79/151/125 120/150/125 71/161/125
f 119/159/126 133/158/126 131/162/126 121/163/126
f 71/161/127 122/160/127 64/140/127
f 121/163/128 122/160/128 118/156/128 119/159/128
f 121/163/129 131/162/129 49/164/129 123/141/129
f 123/141/130 64/140/130 122/160/130 121/163/130
f 123/141/131 49/164/131 57/139/131
f 93/146/132 126/145/132 117/149/132 116/147/132
f 124/155/133 125/154/133 127/143/133 128/165/133
f 126/145/134 125/154/134 114/153/134 117/149/134
f 124/155/135 132/166/135 134/157/135 115/152/135
f 128/165/136 127/143/136 107/142/136 129/138/136
f 100/144/137 127/143/137 125/154/137 126/145/137
f 128/165/138 130/167/138 132/166/138 124/155/138
f 129/138/139 7/137/139 130/167/139 128/165/139
f 129/138/140 107/142/140 112/136/140
f 130/167/141 7/137/141 14/168/141
f 132/166/142 130/167/142 14/168/142 136/169/142
f 134/157/143 132/166/143 136/169/143 135/170/143
f 133/158/144 134/157/144 135/170/144 137/171/144
f 49/164/145 131/162/145 42/172/145
f 131/162/146 133/158/146 137/171/146 42/172/146
f 137/171/147 135/170/147 138/173/147 35/174/147
f 136/169/148 14/168/148 21/175/148
f 42/172/149 137/171/149 35/174/149
f 135/170/150 136/169/150 21/175/150 138/173/150
f 138/173/151 21/175/151 28/176/151
f 35/174/152 138/173/152 28/176/152
f 18/107/153 19/89/153 147/177/153 146/178/153
f 13/92/154 18/107/154 146/178/154 145/179/154
f 27/111/155 32/117/155 152/180/155 151/181/155
f 34/105/156 1/104/156 139/182/156 154/183/156
f 12/93/157 13/92/157 145/179/157 144/184/157
f 32/117/158 33/116/158 153/185/158 152/180/158
f 20/87/159 25/86/159 149/186/159 148/187/159
f 11/101/160 12/93/160 144/184/160 143/188/160
f 4/97/161 5/96/161 141/189/161 140/190/161
f 33/116/162 34/105/162 154/183/162 153/185/162
f 6/99/163 11/113/163 143/191/163 142/192/163
f 19/89/164 20/87/164 148/187/164 147/177/164
f 5/96/165 6/99/165 142/192/165 141/189/165
f 25/86/166 26/109/166 150/193/166 149/186/166
f 26/109/167 27/111/167 151/181/167 150/193/167
f 1/104/168 4/97/168 140/190/168 139/182/168
